<?xml version="1.0" standalone="no"?>
<!DOCTYPE svg PUBLIC "-//W3C//DTD SVG 20010904//EN"
 "http://www.w3.org/TR/2001/REC-SVG-20010904/DTD/svg10.dtd">
<svg version="1.0" xmlns="http://www.w3.org/2000/svg"
 width="256.000000pt" height="256.000000pt" viewBox="0 0 256.000000 256.000000"
 preserveAspectRatio="xMidYMid meet">
<metadata>
Created by potrace 1.14, written by Peter Selinger 2001-2017
</metadata>
<g transform="translate(0.000000,256.000000) scale(0.100000,-0.100000)"
fill="#000000" stroke="none">
<path d="M1240 2173 c-237 -14 -419 -69 -488 -148 l-32 -36 0 -142 0 -142
-113 0 c-82 0 -127 -5 -167 -19 -218 -73 -366 -229 -420 -442 -25 -98 -25
-190 0 -288 54 -213 202 -369 420 -442 69 -23 250 -26 325 -5 55 16 154 62
199 94 26 19 34 19 105 9 42 -7 116 -15 164 -18 77 -6 90 -10 97 -28 11 -29
57 -70 105 -94 248 -124 845 -111 1048 24 77 51 77 50 77 399 0 290 -1 312
-20 342 -50 83 -232 145 -472 161 l-93 7 -5 290 c-4 212 -9 296 -18 313 -36
62 -171 120 -345 146 -99 15 -278 25 -367 19z m300 -113 c159 -20 311 -73 318
-111 6 -35 -142 -88 -307 -110 -129 -17 -435 -6 -537 20 -112 28 -194 67 -194
92 0 29 146 83 284 104 101 16 324 18 436 5z m328 -321 c-4 -83 -14 -95 -106
-129 -97 -37 -190 -51 -372 -56 -246 -8 -354 9 -459 71 -41 25 -81 45 -88 45
-9 0 -13 19 -13 66 0 52 3 65 14 61 7 -3 43 -15 80 -26 238 -73 676 -65 881
17 28 11 54 20 59 21 4 1 6 -31 4 -70z m-1155 -144 c258 -54 435 -304 399
-560 -40 -279 -294 -475 -566 -436 -282 40 -475 294 -436 574 34 242 248 428
500 436 19 0 65 -6 103 -14z m1157 -124 l0 -60 -57 -5 c-218 -22 -353 -57
-433 -111 -52 -35 -75 -40 -142 -29 -32 6 -38 11 -53 53 -10 25 -29 66 -42 89
l-25 44 22 -7 c35 -11 357 -8 440 4 96 15 194 39 245 62 22 10 41 18 43 18 1
1 2 -26 2 -58z m369 -200 c104 -22 204 -67 209 -93 2 -12 -12 -25 -47 -43
-220 -111 -797 -101 -962 16 -29 21 -30 22 -12 41 35 39 163 79 313 98 117 14
389 4 499 -19z m-958 -121 l29 0 0 -86 0 -85 -42 3 -43 3 0 88 c-1 70 2 87 13
82 7 -3 27 -5 43 -5z m235 -150 c225 -69 635 -67 852 6 40 13 75 24 77 24 3 0
5 -31 5 -69 0 -65 -2 -71 -27 -88 -41 -28 -77 -42 -167 -64 -119 -30 -426 -38
-565 -15 -108 18 -192 44 -241 73 -29 17 -30 20 -30 91 0 59 3 73 14 69 7 -3
45 -15 82 -27z m-206 -217 l0 -86 -102 7 c-56 3 -103 8 -106 10 -2 3 15 35 37
72 23 37 41 73 41 78 0 7 24 10 65 8 l65 -4 0 -85z m196 -63 c100 -35 240 -52
424 -52 221 -1 354 20 503 78 16 6 18 0 15 -72 l-3 -78 -46 -24 c-155 -79
-507 -104 -756 -53 -98 21 -201 61 -207 83 -3 7 -7 44 -9 81 -4 60 -3 68 12
62 9 -4 39 -15 67 -25z"/>
<path d="M577 1502 c-10 -10 -17 -27 -17 -38 0 -12 -14 -25 -41 -38 -56 -26
-92 -83 -97 -155 -8 -111 60 -189 176 -204 59 -7 90 -30 97 -71 12 -60 -25
-105 -87 -106 -28 0 -42 7 -62 31 -14 17 -26 41 -26 53 0 25 -28 56 -52 56
-24 0 -48 -34 -48 -69 0 -61 63 -148 120 -166 15 -5 20 -15 20 -40 0 -26 6
-39 25 -51 23 -15 27 -15 50 0 18 12 25 25 25 50 0 28 5 36 29 45 36 16 87 68
100 104 6 16 11 52 11 81 0 99 -84 183 -187 185 -50 1 -88 40 -88 90 0 56 30
86 86 86 33 0 46 -6 65 -28 13 -16 24 -37 24 -48 0 -36 19 -59 48 -59 38 0 52
17 52 62 0 59 -34 115 -91 150 -36 23 -49 37 -49 54 0 41 -55 57 -83 26z"/>
</g>
</svg>
